<svg width="512" height="512" viewBox="0 0 512 512" fill="none" xmlns="http://www.w3.org/2000/svg">
<g clip-path="url(#clip0)">
<rect width="512" height="512" fill="black"/>
<g opacity="0.15">
<line x1="20.125" y1="2.18557e-08" x2="20.125" y2="628" stroke="white"/>
<line x1="39.75" y1="2.18557e-08" x2="39.75" y2="628" stroke="white"/>
<line x1="59.375" y1="2.18557e-08" x2="59.375" y2="628" stroke="white"/>
<line x1="79.0002" y1="2.18557e-08" x2="79.0002" y2="628" stroke="white"/>
<line x1="98.625" y1="2.18557e-08" x2="98.625" y2="628" stroke="white"/>
<line x1="118.25" y1="2.18557e-08" x2="118.25" y2="628" stroke="white"/>
<line x1="137.875" y1="2.18557e-08" x2="137.875" y2="628" stroke="white"/>
<line x1="157.5" y1="2.18557e-08" x2="157.5" y2="628" stroke="white"/>
<line x1="177.125" y1="2.18557e-08" x2="177.125" y2="628" stroke="white"/>
<line x1="196.75" y1="2.18557e-08" x2="196.75" y2="628" stroke="white"/>
<line x1="216.375" y1="2.18557e-08" x2="216.375" y2="628" stroke="white"/>
<line x1="236" y1="2.18557e-08" x2="236" y2="628" stroke="white"/>
<line x1="255.625" y1="2.18557e-08" x2="255.625" y2="628" stroke="white"/>
<line x1="275.25" y1="2.18557e-08" x2="275.25" y2="628" stroke="white"/>
<line x1="294.875" y1="2.18557e-08" x2="294.875" y2="628" stroke="white"/>
<line x1="314.5" y1="2.18557e-08" x2="314.5" y2="628" stroke="white"/>
<line x1="334.125" y1="2.18557e-08" x2="334.125" y2="628" stroke="white"/>
<line x1="353.75" y1="2.18557e-08" x2="353.75" y2="628" stroke="white"/>
<line x1="373.375" y1="2.18557e-08" x2="373.375" y2="628" stroke="white"/>
<line x1="393" y1="2.18557e-08" x2="393" y2="628" stroke="white"/>
<line x1="412.625" y1="2.18557e-08" x2="412.625" y2="628" stroke="white"/>
<line x1="432.25" y1="2.18557e-08" x2="432.25" y2="628" stroke="white"/>
<line x1="451.875" y1="2.18557e-08" x2="451.875" y2="628" stroke="white"/>
<line x1="471.5" y1="2.18557e-08" x2="471.5" y2="628" stroke="white"/>
<line x1="491.125" y1="2.18557e-08" x2="491.125" y2="628" stroke="white"/>
<line x1="510.75" y1="2.18557e-08" x2="510.75" y2="628" stroke="white"/>
<line x1="628" y1="20.125" x2="-4.37113e-08" y2="20.1249" stroke="white"/>
<line x1="628" y1="39.75" x2="-4.37113e-08" y2="39.7499" stroke="white"/>
<line x1="628" y1="59.375" x2="-4.37113e-08" y2="59.3749" stroke="white"/>
<line x1="628" y1="79.0001" x2="-4.37113e-08" y2="79.0001" stroke="white"/>
<line x1="628" y1="98.625" x2="-4.37113e-08" y2="98.6249" stroke="white"/>
<line x1="628" y1="118.25" x2="-4.37113e-08" y2="118.25" stroke="white"/>
<line x1="628" y1="137.875" x2="-4.37113e-08" y2="137.875" stroke="white"/>
<line x1="628" y1="157.5" x2="-4.37113e-08" y2="157.5" stroke="white"/>
<line x1="628" y1="177.125" x2="-4.37113e-08" y2="177.125" stroke="white"/>
<line x1="628" y1="196.75" x2="-4.37113e-08" y2="196.75" stroke="white"/>
<line x1="628" y1="216.375" x2="-4.37113e-08" y2="216.375" stroke="white"/>
<line x1="628" y1="236" x2="-4.37113e-08" y2="236" stroke="white"/>
<line x1="628" y1="255.625" x2="-4.37113e-08" y2="255.625" stroke="white"/>
<line x1="628" y1="275.25" x2="-4.37113e-08" y2="275.25" stroke="white"/>
<line x1="628" y1="294.875" x2="-4.37113e-08" y2="294.875" stroke="white"/>
<line x1="628" y1="314.5" x2="-4.37113e-08" y2="314.5" stroke="white"/>
<line x1="628" y1="334.125" x2="-4.37113e-08" y2="334.125" stroke="white"/>
<line x1="628" y1="353.75" x2="-4.37113e-08" y2="353.75" stroke="white"/>
<line x1="628" y1="373.375" x2="-4.37113e-08" y2="373.375" stroke="white"/>
<line x1="628" y1="393" x2="-4.37113e-08" y2="393" stroke="white"/>
<line x1="628" y1="412.625" x2="-4.37113e-08" y2="412.625" stroke="white"/>
<line x1="628" y1="432.25" x2="-4.37113e-08" y2="432.25" stroke="white"/>
<line x1="628" y1="451.875" x2="-4.37113e-08" y2="451.875" stroke="white"/>
<line x1="628" y1="471.5" x2="-4.37113e-08" y2="471.5" stroke="white"/>
<line x1="628" y1="491.125" x2="-4.37113e-08" y2="491.125" stroke="white"/>
<line x1="628" y1="510.75" x2="-4.37113e-08" y2="510.75" stroke="white"/>
</g>
<rect x="-2.5" y="-2.5" width="261" height="261" fill="#4CC9F0" stroke="white" stroke-width="5"/>
<rect x="253.5" y="-2.5" width="261" height="261" fill="#3F37C9" stroke="white" stroke-width="5"/>
<rect x="-2.5" y="253.5" width="261" height="261" fill="#560BAD" stroke="white" stroke-width="5"/>
<rect x="253.5" y="253.5" width="261" height="261" fill="#F72585" stroke="white" stroke-width="5"/>
<path d="M339.125 181V164.984L351.078 162.094V86.3125L339.125 83.3438V67.25H392.406C402.667 67.25 411.755 69.6458 419.672 74.4375C427.589 79.1771 433.786 85.7656 438.266 94.2031C442.745 102.589 444.984 112.276 444.984 123.266V125.062C444.984 136.052 442.745 145.766 438.266 154.203C433.786 162.589 427.589 169.151 419.672 173.891C411.755 178.63 402.667 181 392.406 181H339.125ZM378.5 160.219H391C399.646 160.219 406.208 157.016 410.688 150.609C415.167 144.151 417.406 135.635 417.406 125.062V123.188C417.406 112.667 415.167 104.203 410.688 97.7969C406.208 91.3385 399.646 88.1094 391 88.1094H378.5V160.219Z" fill="white"/>
<path d="M52.5 181V164.984L64.2188 162.484V85.8438L52.5 83.3438V67.25H106.172L133.672 142.172H134.141L160.859 67.25H213.906V83.3438L202.109 85.8438V162.484L213.906 164.984V181H162.969V164.984L175.234 162.484V147.641L175.859 94.125L175.391 94.0469L143.203 181H121.641L88.9844 95.0625L88.4375 95.1406L90.3125 143.891V162.484L103.516 164.984V181H52.5Z" fill="white"/>
<path d="M107.203 436V419.984L119.078 417.484V343.5H101.5L100.797 355.766H80.0938V322.25H185.797V355.766H164.859L164.234 343.5H146.5V417.484L158.375 419.984V436H107.203Z" fill="white"/>
<path d="M333.125 436V419.984L344.922 417.484V340.844L333.125 338.344V322.25H388.438C397.5 322.25 405.365 323.839 412.031 327.016C418.698 330.193 423.828 334.62 427.422 340.297C431.068 345.922 432.891 352.484 432.891 359.984C432.891 367.484 431.068 374.047 427.422 379.672C423.828 385.297 418.698 389.672 412.031 392.797C405.365 395.922 397.5 397.484 388.438 397.484H372.344V417.484L384.141 419.984V436H333.125ZM372.344 376.469H388.438C394.01 376.469 398.229 374.958 401.094 371.938C404.01 368.865 405.469 364.932 405.469 360.141C405.469 355.193 404.01 351.13 401.094 347.953C398.229 344.776 394.01 343.188 388.438 343.188H372.344V376.469Z" fill="white"/>
</g>
<defs>
<clipPath id="clip0">
<rect width="512" height="512" fill="white"/>
</clipPath>
</defs>
</svg>
