<svg width="100" height="100" viewBox="0 0 100 100" fill="none" xmlns="http://www.w3.org/2000/svg">
<g clip-path="url(#clip0)">
<rect width="100" height="100" fill="black"/>
<g opacity="0.25">
<line x1="9.5" y1="4.4086e-09" x2="9.49998" y2="100" stroke="white"/>
<line x1="19.5" y1="4.4086e-09" x2="19.5" y2="100" stroke="white"/>
<line x1="29.5" y1="4.4086e-09" x2="29.5" y2="100" stroke="white"/>
<line x1="39.5" y1="4.4086e-09" x2="39.5" y2="100" stroke="white"/>
<line x1="49.5" y1="4.4086e-09" x2="49.5" y2="100" stroke="white"/>
<line x1="59.5" y1="4.4086e-09" x2="59.5" y2="100" stroke="white"/>
<line x1="69.5" y1="4.4086e-09" x2="69.5" y2="100" stroke="white"/>
<line x1="79.5" y1="4.4086e-09" x2="79.5" y2="100" stroke="white"/>
<line x1="89.5" y1="4.4086e-09" x2="89.5" y2="100" stroke="white"/>
<line x1="99.5" y1="4.4086e-09" x2="99.5" y2="100" stroke="white"/>
</g>
<g opacity="0.25">
<line x1="100" y1="9.50002" x2="-2.62643e-08" y2="9.49999" stroke="white"/>
<line x1="100" y1="19.5" x2="-2.62643e-08" y2="19.5" stroke="white"/>
<line x1="100" y1="29.5" x2="-2.62643e-08" y2="29.5" stroke="white"/>
<line x1="100" y1="39.5" x2="-2.62643e-08" y2="39.5" stroke="white"/>
<line x1="100" y1="49.5" x2="-2.62643e-08" y2="49.5" stroke="white"/>
<line x1="100" y1="59.5" x2="-2.62643e-08" y2="59.5" stroke="white"/>
<line x1="100" y1="69.5" x2="-2.62643e-08" y2="69.5" stroke="white"/>
<line x1="100" y1="79.5" x2="-2.62643e-08" y2="79.5" stroke="white"/>
<line x1="100" y1="89.5" x2="-2.62643e-08" y2="89.5" stroke="white"/>
<line x1="100" y1="99.5" x2="-2.62643e-08" y2="99.5" stroke="white"/>
</g>
</g>
<defs>
<clipPath id="clip0">
<rect width="100" height="100" fill="white"/>
</clipPath>
</defs>
</svg>
