<svg width="512" height="512" viewBox="0 0 512 512" fill="none" xmlns="http://www.w3.org/2000/svg">
<rect width="512" height="512" fill="url(#paint0_linear)"/>
<g filter="url(#filter0_d)">
<mask id="path-1-inside-1" fill="white">
<path fill-rule="evenodd" clip-rule="evenodd" d="M218 123C218 120.239 220.239 118 223 118H244C246.761 118 249 120.239 249 123V168H264V123C264 120.239 266.239 118 269 118H290C292.761 118 295 120.239 295 123V168H340C342.761 168 345 170.239 345 173V194C345 196.761 342.761 199 340 199L295 199V389C295 391.761 292.761 394 290 394H269C266.239 394 264 391.761 264 389V199.201L249 199.299V389C249 391.761 246.761 394 244 394H223C220.239 394 218 391.761 218 389V199.5H218L173 199C170.239 199 168 196.761 168 194L168 173C168 170.239 170.239 168 173 168H218H218V123Z"/>
</mask>
<path fill-rule="evenodd" clip-rule="evenodd" d="M218 123C218 120.239 220.239 118 223 118H244C246.761 118 249 120.239 249 123V168H264V123C264 120.239 266.239 118 269 118H290C292.761 118 295 120.239 295 123V168H340C342.761 168 345 170.239 345 173V194C345 196.761 342.761 199 340 199L295 199V389C295 391.761 292.761 394 290 394H269C266.239 394 264 391.761 264 389V199.201L249 199.299V389C249 391.761 246.761 394 244 394H223C220.239 394 218 391.761 218 389V199.5H218L173 199C170.239 199 168 196.761 168 194L168 173C168 170.239 170.239 168 173 168H218H218V123Z" fill="url(#paint1_linear)" fill-opacity="0.95"/>
<path d="M249 168H248V169H249V168ZM264 168V169H265V168H264ZM295 168H294V169H295V168ZM340 199L340 200H340V199ZM295 199L295 198L294 198V199H295ZM264 199.201H265V198.195L263.994 198.201L264 199.201ZM249 199.299L248.994 198.299L248 198.305V199.299H249ZM218 199.5H219V198.5H218V199.5ZM218 199.5L217.989 200.5H218V199.5ZM173 199L173.011 198L173 198L173 199ZM168 194L167 194L168 194ZM168 173L169 173L168 173ZM218 168V169H219V168H218ZM223 117C219.686 117 217 119.686 217 123H219C219 120.791 220.791 119 223 119V117ZM244 117H223V119H244V117ZM250 123C250 119.686 247.314 117 244 117V119C246.209 119 248 120.791 248 123H250ZM250 168V123H248V168H250ZM264 167H249V169H264V167ZM265 168V123H263V168H265ZM265 123C265 120.791 266.791 119 269 119V117C265.686 117 263 119.686 263 123H265ZM269 119H290V117H269V119ZM290 119C292.209 119 294 120.791 294 123H296C296 119.686 293.314 117 290 117V119ZM294 123V168H296V123H294ZM340 167H295V169H340V167ZM346 173C346 169.686 343.314 167 340 167V169C342.209 169 344 170.791 344 173H346ZM346 194V173H344V194H346ZM340 200C343.314 200 346 197.314 346 194H344C344 196.209 342.209 198 340 198V200ZM295 200L340 200L340 198L295 198L295 200ZM294 199V389H296V199H294ZM294 389C294 391.209 292.209 393 290 393V395C293.314 395 296 392.314 296 389H294ZM290 393H269V395H290V393ZM269 393C266.791 393 265 391.209 265 389H263C263 392.314 265.686 395 269 395V393ZM265 389V199.201H263V389H265ZM249.007 200.299L264.006 200.201L263.994 198.201L248.994 198.299L249.007 200.299ZM250 389V199.299H248V389H250ZM244 395C247.314 395 250 392.314 250 389H248C248 391.209 246.209 393 244 393V395ZM223 395H244V393H223V395ZM217 389C217 392.314 219.686 395 223 395V393C220.791 393 219 391.209 219 389H217ZM217 199.5V389H219V199.5H217ZM218 200.5H218V198.5H218V200.5ZM172.989 200L217.989 200.5L218.011 198.5L173.011 198L172.989 200ZM167 194C167 197.314 169.686 200 173 200L173 198C170.791 198 169 196.209 169 194L167 194ZM167 173L167 194L169 194L169 173L167 173ZM173 167C169.686 167 167 169.686 167 173L169 173C169 170.791 170.791 169 173 169V167ZM218 167H173V169H218V167ZM218 167H218V169H218V167ZM217 123V168H219V123H217Z" fill="#DBD7D7" mask="url(#path-1-inside-1)"/>
</g>
<defs>
<filter id="filter0_d" x="164" y="118" width="185" height="284" filterUnits="userSpaceOnUse" color-interpolation-filters="sRGB">
<feFlood flood-opacity="0" result="BackgroundImageFix"/>
<feColorMatrix in="SourceAlpha" type="matrix" values="0 0 0 0 0 0 0 0 0 0 0 0 0 0 0 0 0 0 127 0"/>
<feOffset dy="4"/>
<feGaussianBlur stdDeviation="2"/>
<feColorMatrix type="matrix" values="0 0 0 0 0 0 0 0 0 0 0 0 0 0 0 0 0 0 0.25 0"/>
<feBlend mode="normal" in2="BackgroundImageFix" result="effect1_dropShadow"/>
<feBlend mode="normal" in="SourceGraphic" in2="effect1_dropShadow" result="shape"/>
</filter>
<linearGradient id="paint0_linear" x1="256" y1="0" x2="256" y2="512" gradientUnits="userSpaceOnUse">
<stop stop-color="#200122"/>
<stop offset="1" stop-color="#6F0000"/>
</linearGradient>
<linearGradient id="paint1_linear" x1="256.5" y1="118" x2="256.5" y2="394" gradientUnits="userSpaceOnUse">
<stop stop-color="white"/>
<stop offset="1" stop-color="#E2E2E2"/>
</linearGradient>
</defs>
</svg>
