<svg width="65" height="30" viewBox="0 0 65 30" fill="none" xmlns="http://www.w3.org/2000/svg">
<rect width="65" height="30" rx="10" fill="white" fill-opacity="0.9"/>
<rect width="65" height="30" rx="10" fill="url(#paint0_linear)"/>
<path d="M9.62549 18.1128C8.95231 18.1128 8.37223 17.9445 7.88525 17.6079C7.40186 17.2713 7.02946 16.8058 6.76807 16.2114C6.50667 15.6134 6.37598 14.9259 6.37598 14.1489V14.0361C6.37598 13.2591 6.50488 12.5734 6.7627 11.979C7.02409 11.381 7.39827 10.9137 7.88525 10.5771C8.37223 10.237 8.95231 10.0669 9.62549 10.0669C10.3381 10.0669 10.9342 10.237 11.4141 10.5771C11.8975 10.9137 12.2627 11.381 12.5098 11.979C12.7568 12.5734 12.8804 13.2591 12.8804 14.0361V14.1489C12.8804 14.9259 12.7568 15.6134 12.5098 16.2114C12.2627 16.8058 11.8975 17.2713 11.4141 17.6079C10.9342 17.9445 10.3381 18.1128 9.62549 18.1128ZM9.62549 17.2319C10.1447 17.2319 10.5636 17.103 10.8823 16.8452C11.2046 16.5874 11.4409 16.2275 11.5913 15.7656C11.7417 15.3001 11.8169 14.7612 11.8169 14.1489V14.0254C11.8169 13.4167 11.7399 12.8831 11.5859 12.4248C11.4355 11.9629 11.1992 11.603 10.877 11.3452C10.5547 11.0838 10.1375 10.9531 9.62549 10.9531C9.15641 10.9531 8.75895 11.0838 8.43311 11.3452C8.10726 11.6066 7.86019 11.9683 7.69189 12.4302C7.5236 12.8885 7.43945 13.4202 7.43945 14.0254V14.1489C7.43945 14.7576 7.5236 15.2948 7.69189 15.7603C7.86019 16.2222 8.10726 16.5838 8.43311 16.8452C8.75895 17.103 9.15641 17.2319 9.62549 17.2319ZM13.498 20.2344V19.5522L14.3198 19.4019V13.021L13.4443 12.8706V12.1885H15.2275L15.3242 12.8975C15.7217 12.3532 16.2785 12.0811 16.9946 12.0811C17.4744 12.0811 17.8844 12.2118 18.2246 12.4731C18.5648 12.731 18.8244 13.0944 19.0034 13.5635C19.1825 14.029 19.272 14.575 19.272 15.2017V15.3145C19.272 15.873 19.1807 16.3618 18.998 16.7808C18.819 17.1997 18.5612 17.5273 18.2246 17.7637C17.888 17.9964 17.4834 18.1128 17.0107 18.1128C16.3053 18.1128 15.7611 17.8747 15.3779 17.3984V19.4019L16.3018 19.5522V20.2344H13.498ZM16.6831 17.2856C17.1844 17.2856 17.564 17.103 17.8218 16.7378C18.0796 16.3726 18.2085 15.8981 18.2085 15.3145V15.2017C18.2085 14.5392 18.0796 13.9967 17.8218 13.5742C17.564 13.1517 17.1808 12.9404 16.6724 12.9404C16.3716 12.9404 16.1138 13.0085 15.8989 13.1445C15.6841 13.2806 15.5104 13.4668 15.3779 13.7031V16.5337C15.5104 16.7736 15.6823 16.9598 15.8936 17.0923C16.1084 17.2212 16.3716 17.2856 16.6831 17.2856ZM22.9565 18.1128C22.4194 18.1128 21.9521 17.991 21.5547 17.7476C21.1572 17.5005 20.8493 17.1585 20.6309 16.7217C20.416 16.2848 20.3086 15.7799 20.3086 15.207V14.9707C20.3086 14.4193 20.4214 13.9269 20.647 13.4937C20.8761 13.0568 21.1787 12.7131 21.5547 12.4624C21.9342 12.2082 22.3478 12.0811 22.7954 12.0811C23.576 12.0811 24.1668 12.3174 24.5679 12.79C24.9725 13.2627 25.1748 13.8929 25.1748 14.6807V15.3413H21.4043L21.3882 15.3682C21.3989 15.9268 21.5404 16.3869 21.8125 16.7485C22.0846 17.1066 22.466 17.2856 22.9565 17.2856C23.3146 17.2856 23.6279 17.2355 23.8965 17.1353C24.1686 17.0314 24.4032 16.89 24.6001 16.7109L25.0137 17.3984C24.806 17.599 24.5303 17.769 24.1865 17.9087C23.8464 18.0448 23.4364 18.1128 22.9565 18.1128ZM21.4365 14.5142H24.1167V14.3745C24.1167 13.9591 24.0057 13.6118 23.7837 13.3325C23.5617 13.0532 23.2323 12.9136 22.7954 12.9136C22.4409 12.9136 22.1383 13.064 21.8877 13.3647C21.637 13.6619 21.4831 14.0361 21.4258 14.4873L21.4365 14.5142ZM26.002 18V17.3232L26.8774 17.1729V13.021L26.002 12.8706V12.1885H27.8228L27.8979 13.0532C28.0913 12.7453 28.333 12.5072 28.623 12.3389C28.9167 12.167 29.2497 12.0811 29.6221 12.0811C30.2487 12.0811 30.7339 12.2655 31.0776 12.6343C31.4214 12.9995 31.5933 13.5653 31.5933 14.3315V17.1729L32.4688 17.3232V18H29.6597V17.3232L30.5352 17.1729V14.353C30.5352 13.841 30.4331 13.4775 30.229 13.2627C30.0285 13.0479 29.7205 12.9404 29.3052 12.9404C29.0008 12.9404 28.7305 13.0138 28.4941 13.1606C28.2614 13.3075 28.0752 13.508 27.9355 13.7622V17.1729L28.811 17.3232V18H26.002ZM35.9976 18V17.3232L36.873 17.1729V11.0122L35.9976 10.8618V10.1797H39.3706C40.187 10.1797 40.8244 10.3569 41.2827 10.7114C41.7446 11.0623 41.9756 11.5905 41.9756 12.2959C41.9756 12.6432 41.8646 12.9548 41.6426 13.2305C41.4242 13.5026 41.1341 13.7049 40.7725 13.8374C41.2415 13.9377 41.6121 14.1686 41.8843 14.5303C42.1564 14.8919 42.2925 15.3127 42.2925 15.7925C42.2925 16.5086 42.0597 17.0565 41.5942 17.436C41.1287 17.812 40.4985 18 39.7036 18H35.9976ZM37.9312 13.5044H39.6445C40.0241 13.5044 40.3302 13.3952 40.563 13.1768C40.7993 12.9548 40.9175 12.654 40.9175 12.2744C40.9175 11.8519 40.785 11.5368 40.52 11.3291C40.255 11.1178 39.8719 11.0122 39.3706 11.0122H37.9312V13.5044ZM37.9312 17.1729H39.7036C40.187 17.1729 40.5612 17.0547 40.8262 16.8184C41.0947 16.5785 41.229 16.2401 41.229 15.8032C41.229 15.3449 41.1162 14.985 40.8906 14.7236C40.6686 14.4622 40.3267 14.3315 39.8647 14.3315H37.9312V17.1729ZM45.7085 18.1128C45.1714 18.1128 44.7041 17.991 44.3066 17.7476C43.9092 17.5005 43.6012 17.1585 43.3828 16.7217C43.168 16.2848 43.0605 15.7799 43.0605 15.207V14.9707C43.0605 14.4193 43.1733 13.9269 43.3989 13.4937C43.6281 13.0568 43.9307 12.7131 44.3066 12.4624C44.6862 12.2082 45.0998 12.0811 45.5474 12.0811C46.328 12.0811 46.9188 12.3174 47.3198 12.79C47.7244 13.2627 47.9268 13.8929 47.9268 14.6807V15.3413H44.1562L44.1401 15.3682C44.1509 15.9268 44.2923 16.3869 44.5645 16.7485C44.8366 17.1066 45.2179 17.2856 45.7085 17.2856C46.0666 17.2856 46.3799 17.2355 46.6484 17.1353C46.9206 17.0314 47.1551 16.89 47.3521 16.7109L47.7656 17.3984C47.5579 17.599 47.2822 17.769 46.9385 17.9087C46.5983 18.0448 46.1883 18.1128 45.7085 18.1128ZM44.1885 14.5142H46.8687V14.3745C46.8687 13.9591 46.7576 13.6118 46.5356 13.3325C46.3136 13.0532 45.9842 12.9136 45.5474 12.9136C45.1929 12.9136 44.8903 13.064 44.6396 13.3647C44.389 13.6619 44.235 14.0361 44.1777 14.4873L44.1885 14.5142ZM50.8057 18.0913C50.376 18.0913 50.034 17.966 49.7798 17.7153C49.5291 17.4611 49.4038 17.0565 49.4038 16.5015V12.9727H48.4854V12.1885H49.4038V10.7866H50.4619V12.1885H51.7241V12.9727H50.4619V16.5015C50.4619 16.7808 50.5174 16.9867 50.6284 17.1191C50.7394 17.2516 50.888 17.3179 51.0742 17.3179C51.1995 17.3179 51.3392 17.3071 51.4932 17.2856C51.6471 17.2606 51.7671 17.2391 51.853 17.2212L51.998 17.9141C51.8441 17.9606 51.6543 18.0018 51.4287 18.0376C51.2067 18.0734 50.999 18.0913 50.8057 18.0913ZM54.5547 18.1128C53.9495 18.1128 53.4894 17.966 53.1743 17.6724C52.8592 17.3752 52.7017 16.958 52.7017 16.4209C52.7017 15.8695 52.9272 15.4272 53.3784 15.0942C53.8296 14.7576 54.4562 14.5894 55.2583 14.5894H56.2949V14.02C56.2949 13.6691 56.1875 13.397 55.9727 13.2036C55.7614 13.0103 55.4624 12.9136 55.0757 12.9136C54.8322 12.9136 54.6209 12.944 54.4419 13.0049C54.2629 13.0622 54.0999 13.1427 53.9531 13.2466L53.8403 14.0576H53.0239V12.7256C53.5503 12.2959 54.2396 12.0811 55.0918 12.0811C55.7972 12.0811 56.3504 12.2493 56.7515 12.5859C57.1525 12.9225 57.353 13.4041 57.353 14.0308V16.8291C57.353 16.9043 57.353 16.9777 57.353 17.0493C57.3566 17.1209 57.362 17.1925 57.3691 17.2642L57.9331 17.3232V18H56.4131C56.3522 17.7064 56.3146 17.4396 56.3003 17.1997C56.0962 17.4611 55.8402 17.6795 55.5322 17.855C55.2279 18.0269 54.902 18.1128 54.5547 18.1128ZM54.7104 17.2266C55.0614 17.2266 55.3818 17.1424 55.6719 16.9741C55.9619 16.8058 56.1696 16.6035 56.2949 16.3672V15.3145H55.2207C54.7337 15.3145 54.3685 15.4308 54.125 15.6636C53.8815 15.8963 53.7598 16.1559 53.7598 16.4424C53.7598 16.9652 54.0767 17.2266 54.7104 17.2266Z" fill="black"/>
<defs>
<linearGradient id="paint0_linear" x1="86.5" y1="15" x2="-5.49999" y2="15" gradientUnits="userSpaceOnUse">
<stop stop-color="#6CDCDC"/>
<stop offset="1" stop-color="#C513C9"/>
</linearGradient>
</defs>
</svg>
