<svg width="74" height="32" viewBox="0 0 74 32" fill="none" xmlns="http://www.w3.org/2000/svg">
<path opacity="0.5" d="M25.4687 25V22.5977L27.2617 22.1641V10.7969L25.4687 10.3516V7.9375H27.2617H33.4609C35 7.9375 36.3633 8.29687 37.5508 9.01562C38.7383 9.72656 39.668 10.7148 40.3398 11.9805C41.0117 13.2383 41.3477 14.6914 41.3477 16.3398V16.6094C41.3477 18.2578 41.0117 19.7148 40.3398 20.9805C39.668 22.2383 38.7383 23.2227 37.5508 23.9336C36.3633 24.6445 35 25 33.4609 25H25.4687ZM31.375 21.8828H33.25C34.1172 21.8828 34.8437 21.6641 35.4297 21.2266C36.0156 20.7891 36.457 20.1758 36.7539 19.3867C37.0586 18.5898 37.2109 17.6641 37.2109 16.6094V16.3281C37.2109 15.2734 37.0586 14.3516 36.7539 13.5625C36.457 12.7734 36.0156 12.1602 35.4297 11.7227C34.8437 11.2852 34.1172 11.0664 33.25 11.0664H31.375V21.8828Z" fill="white"/>
<path opacity="0.5" d="M0.375 25V22.5977L2.13281 22.2227V10.7266L0.375 10.3516V7.9375H2.13281H8.42578L12.5508 19.1758H12.6211L16.6289 7.9375H24.5859V10.3516L22.8164 10.7266V22.2227L24.5859 22.5977V25H16.9453V22.5977L18.7852 22.2227V19.9961L18.8789 11.9687L18.8086 11.957L13.9805 25H10.7461L5.84766 12.1094L5.76562 12.1211L6.04687 19.4336V22.2227L8.02734 22.5977V25H0.375Z" fill="white"/>
<path opacity="0.5" d="M46.2305 25V22.5977L48.0117 22.2227V11.125H45.375L45.2695 12.9648H42.1641V7.9375H58.0195V12.9648H54.8789L54.7852 11.125H52.125V22.2227L53.9062 22.5977V25H46.2305Z" fill="white"/>
<path opacity="0.5" d="M58.4688 25V22.5977L60.2383 22.2227V10.7266L58.4688 10.3516V7.9375H60.2383H66.7656C68.125 7.9375 69.3047 8.17578 70.3047 8.65234C71.3047 9.12891 72.0742 9.79297 72.6133 10.6445C73.1602 11.4883 73.4336 12.4727 73.4336 13.5977C73.4336 14.7227 73.1602 15.707 72.6133 16.5508C72.0742 17.3945 71.3047 18.0508 70.3047 18.5195C69.3047 18.9883 68.125 19.2227 66.7656 19.2227H64.3516V22.2227L66.1211 22.5977V25H58.4688ZM64.3516 16.0703H66.7656C67.6016 16.0703 68.2344 15.8438 68.6641 15.3906C69.1016 14.9297 69.3203 14.3398 69.3203 13.6211C69.3203 12.8789 69.1016 12.2695 68.6641 11.793C68.2344 11.3164 67.6016 11.0781 66.7656 11.0781H64.3516V16.0703Z" fill="white"/>
</svg>
