<svg width="173" height="47" viewBox="0 0 173 47" fill="none" xmlns="http://www.w3.org/2000/svg">
<path d="M0 37.3162L0.87288 32.0622L4.91679 31.8704L9.09384 6.72811L5.32244 5.27962L6.19958 0L24.0966 2.87785L29.1832 28.9308L29.3395 28.9559L42.3323 5.81016L60.021 8.6545L59.1438 13.9341L55.0739 14.1217L50.8968 39.264L54.6943 40.7167L53.8214 45.9707L36.8361 43.2394L37.709 37.9854L41.9353 37.823L42.7443 32.9534L45.8694 15.4309L45.7173 15.3801L30.2452 42.1796L23.0551 41.0234L16.8496 11.0803L16.663 11.0766L14.6312 27.1698L13.6178 33.2695L17.8842 34.7976L17.0113 40.0516L0 37.3162Z" fill="white" fill-opacity="0.25"/>
<path d="M61.537 46.3501L61.7313 41.0298L65.8024 40.2122L66.7217 15.0382L62.7216 13.9094L62.9169 8.56314L80.9078 9.19903C84.3723 9.32148 87.4121 10.2258 90.0271 11.9121C92.6428 13.581 94.6556 15.8436 96.0657 18.7C97.4764 21.539 98.1151 24.7838 97.9818 28.4345L97.96 29.0314C97.8267 32.6821 96.9526 35.8821 95.3379 38.6315C93.7237 41.3637 91.5513 43.4697 88.8207 44.9497C86.09 46.4297 82.9925 47.1084 79.5279 46.986L61.537 46.3501ZM75.0844 39.9166L79.3052 40.0658C81.2573 40.1348 82.9105 39.7082 84.2649 38.7859C85.6192 37.8636 86.6625 36.5405 87.3946 34.8167C88.1449 33.0762 88.5627 31.038 88.648 28.7023L88.6707 28.0794C88.756 25.7437 88.4876 23.69 87.8656 21.9183C87.2611 20.1472 86.3171 18.7539 85.0335 17.7383C83.7499 16.7228 82.132 16.1806 80.1799 16.1116L75.9592 15.9624L75.0844 39.9166Z" fill="white" fill-opacity="0.25"/>
<path d="M111.407 46.5488L110.972 41.2423L114.904 40.0969L112.896 15.5835L106.976 16.0527L107.072 20.1355L100.1 20.6882L99.1902 9.58338L134.79 6.76143L135.699 17.8663L128.648 18.4252L128.104 14.3779L122.132 14.8514L124.139 39.3649L128.206 39.8762L128.641 45.1827L111.407 46.5488Z" fill="white" fill-opacity="0.25"/>
<path d="M144.518 43.5417L143.491 38.3147L147.244 36.7545L142.329 11.7417L138.255 11.6701L137.223 6.4177L155.572 2.92786C158.579 2.35608 161.29 2.37832 163.705 2.99459C166.12 3.61086 168.106 4.73202 169.662 6.35807C171.232 7.96385 172.258 9.9906 172.739 12.4383C173.22 14.8861 173.036 17.1429 172.187 19.2087C171.356 21.2712 169.935 23.0227 167.924 24.4633C165.912 25.9038 163.404 26.9099 160.397 27.4817L155.058 28.4971L156.341 35.0244L160.415 35.096L161.442 40.3229L144.518 43.5417ZM153.711 21.6383L159.05 20.6229C160.898 20.2713 162.201 19.5122 162.957 18.3456C163.728 17.1587 163.96 15.7833 163.652 14.2195C163.335 12.6046 162.591 11.3708 161.419 10.5179C160.265 9.66177 158.764 9.4095 156.915 9.76112L151.576 10.7765L153.711 21.6383Z" fill="white" fill-opacity="0.25"/>
<path d="M29.7755 29.2007L42.5975 6.35922L59.4453 9.06837L58.7169 13.4533L55.0508 13.6222L54.6469 13.6409L54.5806 14.0398L50.4036 39.182L50.3366 39.585L50.7182 39.731L54.1341 41.0377L53.4097 45.398L37.4117 42.8256L38.1354 38.4694L41.9545 38.3226L42.3617 38.3069L42.4285 37.9049L43.2365 33.0412L43.2375 33.0354L46.3616 15.5187L46.4375 15.0934L46.0277 14.9566L45.8757 14.9059L45.4884 14.7766L45.2843 15.1301L29.9845 41.6312L23.4748 40.5845L17.3392 10.9788L17.2582 10.5883L16.8595 10.5804L16.6728 10.5767L16.2232 10.5678L16.1669 11.014L14.1364 27.0974L13.1246 33.1876L13.0562 33.5994L13.4492 33.7402L17.3225 35.1275L16.5996 39.479L0.575611 36.9023L1.29994 32.5425L4.94047 32.3698L5.34384 32.3507L5.41002 31.9523L9.58708 6.81005L9.65393 6.40762L9.2731 6.26135L5.88254 4.95913L6.6113 0.572627L23.6727 3.31612L28.6925 29.0266L28.7593 29.3691L29.1038 29.4245L29.2601 29.4496L29.6047 29.505L29.7755 29.2007ZM65.9009 40.7024L66.2877 40.6247L66.3021 40.2305L67.2214 15.0565L67.2357 14.6637L66.8575 14.557L63.2357 13.5349L63.3983 9.08047L80.8902 9.69871C84.2752 9.81836 87.2253 10.7003 89.7562 12.3323L89.7582 12.3336C92.2947 13.9521 94.2466 16.1445 95.6174 18.9213L95.6179 18.9225C96.9862 21.6761 97.6129 24.8361 97.4821 28.4163L97.4603 29.0132C97.3296 32.5932 96.4738 35.7102 94.9067 38.3783C93.3377 41.0336 91.2312 43.0745 88.5824 44.5101C85.939 45.9428 82.9316 46.606 79.5456 46.4863L62.0549 45.8681L62.2165 41.4423L65.9009 40.7024ZM74.5848 39.8984L74.5665 40.3986L75.0668 40.4163L79.2875 40.5655C81.325 40.6375 83.0881 40.1922 84.5463 39.1992C85.9906 38.2156 87.0905 36.8116 87.8545 35.0127C88.6338 33.2042 89.0606 31.1034 89.1477 28.7205L89.1704 28.0977C89.2574 25.7152 88.9847 23.5976 88.3382 21.7549C87.7072 19.9071 86.7126 18.4292 85.3437 17.3462C83.9613 16.2526 82.235 15.6839 80.1976 15.6119L75.9769 15.4627L75.4777 15.4451L75.4595 15.9441L74.5848 39.8984ZM100.557 20.1504L99.7294 10.0422L134.332 7.29928L135.16 17.4075L129.08 17.8894L128.6 14.3114L128.537 13.8421L128.065 13.8795L122.092 14.3529L121.592 14.3926L121.633 14.8922L123.641 39.4057L123.674 39.8103L124.077 39.861L127.741 40.3216L128.102 44.7239L111.865 46.011L111.504 41.6082L115.044 40.577L115.436 40.4628L115.402 40.0561L113.395 15.5426L113.354 15.0456L112.857 15.085L106.937 15.5543L106.465 15.5917L106.476 16.0645L106.561 19.6745L100.557 20.1504ZM138.668 11.1773L137.811 6.8149L155.666 3.41906C158.616 2.85791 161.251 2.88455 163.581 3.47907C165.916 4.07478 167.816 5.15242 169.301 6.70381L169.305 6.70765C170.799 8.23621 171.784 10.1716 172.248 12.5347C172.713 14.898 172.532 17.0539 171.725 19.0187L171.724 19.0217C170.932 20.9865 169.575 22.6651 167.632 24.0568C165.692 25.4462 163.255 26.4291 160.304 26.9905L154.965 28.0059L154.471 28.0999L154.568 28.5935L155.85 35.1208L155.928 35.5172L156.332 35.5243L160.002 35.5888L160.854 39.9257L144.913 42.9576L144.061 38.6195L147.436 37.2162L147.814 37.0593L147.735 36.6581L142.82 11.6453L142.742 11.2489L142.338 11.2418L138.668 11.1773ZM153.22 21.7347L153.316 22.2224L153.804 22.1295L159.143 21.1141C161.077 20.7464 162.523 19.9348 163.377 18.6178C164.227 17.3079 164.472 15.7969 164.143 14.1231C163.805 12.4036 163.002 11.0524 161.716 10.1153C160.418 9.15305 158.762 8.90086 156.822 9.26992L151.483 10.2853L150.989 10.3793L151.086 10.8729L153.22 21.7347Z" stroke="white" stroke-opacity="0.1"/>
</svg>
